<svg width="12" height="6" viewBox="0 0 12 6" fill="none" xmlns="http://www.w3.org/2000/svg">
<path d="M11.8625 2.66819C11.8624 2.66805 11.8623 2.66789 11.8621 2.66775L9.41278 0.230248C9.22929 0.047647 8.9325 0.0483265 8.74985 0.231842C8.56723 0.415334 8.56793 0.712123 8.75142 0.894748L10.3959 2.53125H0.46875C0.209859 2.53125 0 2.74111 0 3C0 3.25889 0.209859 3.46875 0.46875 3.46875H10.3959L8.75144 5.10524C8.56795 5.28787 8.56725 5.58466 8.74988 5.76815C8.93252 5.95169 9.22934 5.95232 9.4128 5.76974L11.8621 3.33225C11.8623 3.3321 11.8624 3.33194 11.8625 3.3318C12.0461 3.14857 12.0455 2.85082 11.8625 2.66819Z" fill="#ED0000"/>
</svg>
