<svg width="20" height="20" viewBox="0 0 20 20" fill="none" xmlns="http://www.w3.org/2000/svg">
<path d="M0 1C0 0.447715 0.447715 0 1 0H19C19.5523 0 20 0.447715 20 1V3C20 3.55228 19.5523 4 19 4H1C0.447716 4 0 3.55228 0 3V1Z" fill="#C8C8C8"/>
<path d="M0 9C0 8.44772 0.447715 8 1 8H19C19.5523 8 20 8.44772 20 9V11C20 11.5523 19.5523 12 19 12H1C0.447716 12 0 11.5523 0 11V9Z" fill="#C8C8C8"/>
<path d="M0 17C0 16.4477 0.447715 16 1 16H19C19.5523 16 20 16.4477 20 17V19C20 19.5523 19.5523 20 19 20H1C0.447716 20 0 19.5523 0 19V17Z" fill="#C8C8C8"/>
</svg>
