<svg width="20" height="21" viewBox="0 0 20 21" fill="none" xmlns="http://www.w3.org/2000/svg">
<path d="M7 5.99994C7 7.65679 5.65685 8.99994 4 8.99994C2.34315 8.99994 1 7.65679 1 5.99994C1 4.34308 2.34315 2.99994 4 2.99994C5.65685 2.99994 7 4.34308 7 5.99994ZM7 16.9999C7 18.6568 5.65685 19.9999 4 19.9999C2.34315 19.9999 1 18.6568 1 16.9999C1 15.3431 2.34315 13.9999 4 13.9999C5.65685 13.9999 7 15.3431 7 16.9999ZM18 16.9999C18 18.6568 16.6569 19.9999 15 19.9999C13.3431 19.9999 12 18.6568 12 16.9999C12 15.3431 13.3431 13.9999 15 13.9999C16.6569 13.9999 18 15.3431 18 16.9999ZM11.1213 6.3639C10.7308 5.97338 10.7308 5.34021 11.1213 4.94969L13.9497 2.12126C14.3403 1.73074 14.9734 1.73074 15.364 2.12126L18.1924 4.94969C18.5829 5.34021 18.5829 5.97338 18.1924 6.3639L15.364 9.19233C14.9734 9.58285 14.3403 9.58285 13.9497 9.19233L11.1213 6.3639Z" stroke="white" stroke-width="2"/>
</svg>
