<svg width="15" height="3" viewBox="0 0 15 3" fill="none" xmlns="http://www.w3.org/2000/svg">
<path d="M2.5 1.5C2.5 2.05228 2.05228 2.5 1.5 2.5C0.947715 2.5 0.5 2.05228 0.5 1.5C0.5 0.947715 0.947715 0.5 1.5 0.5C2.05228 0.5 2.5 0.947715 2.5 1.5ZM8.5 1.5C8.5 2.05228 8.05229 2.5 7.5 2.5C6.94772 2.5 6.5 2.05228 6.5 1.5C6.5 0.947715 6.94772 0.5 7.5 0.5C8.05229 0.5 8.5 0.947715 8.5 1.5ZM14.5 1.5C14.5 2.05228 14.0523 2.5 13.5 2.5C12.9477 2.5 12.5 2.05228 12.5 1.5C12.5 0.947716 12.9477 0.5 13.5 0.5C14.0523 0.5 14.5 0.947715 14.5 1.5Z" stroke="black"/>
</svg>
