<svg width="18" height="3" viewBox="0 0 18 3" fill="none" xmlns="http://www.w3.org/2000/svg">
<path d="M3 1.5C3 2.32843 2.32843 3 1.5 3C0.671573 3 0 2.32843 0 1.5C0 0.671573 0.671573 0 1.5 0C2.32843 0 3 0.671573 3 1.5Z" fill="#7E7E7E"/>
<path d="M10.5 1.5C10.5 2.32843 9.82843 3 9 3C8.17157 3 7.5 2.32843 7.5 1.5C7.5 0.671573 8.17157 0 9 0C9.82843 0 10.5 0.671573 10.5 1.5Z" fill="#7E7E7E"/>
<path d="M18 1.5C18 2.32843 17.3284 3 16.5 3C15.6716 3 15 2.32843 15 1.5C15 0.671573 15.6716 0 16.5 0C17.3284 0 18 0.671573 18 1.5Z" fill="#7E7E7E"/>
</svg>
