<svg width="22" height="20" viewBox="0 0 22 20" fill="none" xmlns="http://www.w3.org/2000/svg">
<path d="M0 1C0 0.447715 0.447715 0 1 0H3C3.55228 0 4 0.447715 4 1V3C4 3.55228 3.55228 4 3 4H1C0.447715 4 0 3.55228 0 3V1Z" fill="#C8C8C8"/>
<path d="M0 9C0 8.44772 0.447715 8 1 8H3C3.55228 8 4 8.44772 4 9V11C4 11.5523 3.55228 12 3 12H1C0.447715 12 0 11.5523 0 11V9Z" fill="#C8C8C8"/>
<path d="M0 17C0 16.4477 0.447715 16 1 16H3C3.55228 16 4 16.4477 4 17V19C4 19.5523 3.55228 20 3 20H1C0.447715 20 0 19.5523 0 19V17Z" fill="#C8C8C8"/>
<path d="M8 1C8 0.447715 8.44772 0 9 0H20.6C21.1523 0 21.6 0.447715 21.6 1V3C21.6 3.55228 21.1523 4 20.6 4H9C8.44771 4 8 3.55228 8 3V1Z" fill="#C8C8C8"/>
<path d="M8 9C8 8.44772 8.44772 8 9 8H20.6C21.1523 8 21.6 8.44772 21.6 9V11C21.6 11.5523 21.1523 12 20.6 12H9C8.44771 12 8 11.5523 8 11V9Z" fill="#C8C8C8"/>
<path d="M8 17C8 16.4477 8.44772 16 9 16H20.6C21.1523 16 21.6 16.4477 21.6 17V19C21.6 19.5523 21.1523 20 20.6 20H9C8.44771 20 8 19.5523 8 19V17Z" fill="#C8C8C8"/>
</svg>
