<svg width="30" height="30" viewBox="0 0 30 30" fill="none" xmlns="http://www.w3.org/2000/svg">
<path d="M15.0001 21.1938C19.4097 21.1938 22.9844 17.6191 22.9844 13.2094C22.9844 8.79981 19.4097 5.2251 15.0001 5.2251C10.5905 5.2251 7.01575 8.79981 7.01575 13.2094C7.01575 17.6191 10.5905 21.1938 15.0001 21.1938Z" fill="#F13737"/>
<path d="M24.382 3.88609C21.876 1.38012 18.5441 0 15 0C11.456 0 8.12405 1.38012 5.61808 3.88609C3.11205 6.39217 1.73193 9.72405 1.73193 13.2681C1.73193 19.5205 6.10301 24.9184 12.1754 26.2338L15 30L17.8247 26.2337C23.8971 24.9183 28.2681 19.5205 28.2681 13.2681C28.2681 9.72405 26.888 6.39217 24.382 3.88609ZM15 3.4638C20.3738 3.4638 24.7456 7.83569 24.7456 13.2094C24.7456 18.5831 20.3738 22.955 15 22.955C9.62628 22.955 5.25444 18.5831 5.25444 13.2094C5.25444 7.83569 9.62628 3.4638 15 3.4638Z" fill="#F13737"/>
</svg>
