<svg width="15" height="11" viewBox="0 0 15 11" fill="none" xmlns="http://www.w3.org/2000/svg">
<path d="M14.8679 0.980225L10.3187 5.50012L14.8679 10.02C14.9502 9.84812 15 9.65811 15 9.4552V1.54504C15 1.3421 14.9502 1.15211 14.8679 0.980225Z" fill="#7E7E7E"/>
<path d="M13.6816 0.226562H1.31835C1.11542 0.226562 0.925425 0.276455 0.75354 0.358692L6.56789 6.14375C7.08199 6.65785 7.918 6.65785 8.4321 6.14375L14.2464 0.358692C14.0746 0.276455 13.8846 0.226562 13.6816 0.226562Z" fill="#7E7E7E"/>
<path d="M0.132129 0.980225C0.0498926 1.15211 0 1.3421 0 1.54504V9.4552C0 9.65813 0.0498926 9.84815 0.132129 10.02L4.68132 5.50012L0.132129 0.980225Z" fill="#7E7E7E"/>
<path d="M9.69726 6.12134L9.05352 6.76508C8.19691 7.62169 6.80305 7.62169 5.94644 6.76508L5.30273 6.12134L0.75354 10.6412C0.925425 10.7235 1.11542 10.7734 1.31835 10.7734H13.6816C13.8846 10.7734 14.0746 10.7235 14.2464 10.6412L9.69726 6.12134Z" fill="#7E7E7E"/>
</svg>
