<svg width="12" height="12" viewBox="0 0 12 12" fill="none" xmlns="http://www.w3.org/2000/svg">
<path d="M0.191818 6.46613L4.52544 10.7998C4.64914 10.9236 4.81402 10.9915 4.98982 10.9915C5.16582 10.9915 5.3306 10.9235 5.45431 10.7998L5.84777 10.4063C5.97137 10.2828 6.03947 10.1178 6.03947 9.9419C6.03947 9.7661 5.97137 9.59556 5.84777 9.47205L3.31959 6.93832H11.3517C11.7139 6.93832 12 6.65481 12 6.29257V5.73618C12 5.37394 11.7139 5.06184 11.3517 5.06184H3.29091L5.84767 2.51396C5.97128 2.39026 6.03937 2.22977 6.03937 2.05387C6.03937 1.87816 5.97128 1.71533 5.84767 1.59173L5.45421 1.19944C5.3305 1.07573 5.16572 1.00832 4.98972 1.00832C4.81392 1.00832 4.64904 1.07661 4.52534 1.20031L0.191721 5.53394C0.0677223 5.65803 -0.000472069 5.82369 1.52588e-05 5.99979C-0.000374794 6.17647 0.0677223 6.34222 0.191818 6.46613Z" fill="#222222"/>
</svg>
