<svg width="11" height="11" viewBox="0 0 11 11" fill="none" xmlns="http://www.w3.org/2000/svg">
<g clip-path="url(#clip0)">
<path d="M10.7008 8.07289L9.1657 6.53781C8.61745 5.98956 7.68544 6.20888 7.46614 6.92158C7.30167 7.41502 6.75342 7.68914 6.26 7.57947C5.16352 7.30535 3.68326 5.87991 3.40914 4.7286C3.24466 4.23516 3.57361 3.68692 4.06703 3.52247C4.77974 3.30317 4.99904 2.37115 4.4508 1.82291L2.91572 0.287828C2.47712 -0.0959427 1.81923 -0.0959427 1.43546 0.287828L0.393794 1.32949C-0.64787 2.42598 0.503443 5.33167 3.08019 7.90842C5.65694 10.4852 8.56263 11.6913 9.65912 10.5948L10.7008 9.55315C11.0846 9.11455 11.0846 8.45666 10.7008 8.07289Z" fill="#7E7E7E"/>
</g>
<defs>
<clipPath id="clip0">
<rect width="11" height="11" fill="white"/>
</clipPath>
</defs>
</svg>
