<svg width="12" height="12" viewBox="0 0 12 12" fill="none" xmlns="http://www.w3.org/2000/svg">
<g clip-path="url(#clip0)">
<path d="M8.62436 12C8.237 12 7.85292 11.9315 7.47735 11.7951C5.82277 11.194 4.28698 10.2151 3.03594 8.96405C1.78489 7.71304 0.805949 6.17722 0.204919 4.52264C0.0117783 3.99091 -0.0452193 3.44203 0.0355664 2.89118C0.111243 2.3752 0.31111 1.87429 0.613582 1.44259C0.91739 1.00899 1.32242 0.648348 1.78487 0.399663C2.27802 0.134479 2.81629 0 3.38476 0C3.56157 0 3.71438 0.123534 3.75143 0.296402L4.34001 3.04314C4.36666 3.16752 4.32844 3.29694 4.23851 3.38688L3.23278 4.39259C4.18154 6.27891 5.72104 7.81841 7.60735 8.76716L8.61306 7.76143C8.70301 7.67151 8.83245 7.63333 8.9568 7.65993L11.7035 8.24851C11.8764 8.28557 11.9999 8.43837 11.9999 8.61518C11.9999 9.18365 11.8655 9.72194 11.6003 10.2151C11.3516 10.6775 10.9909 11.0826 10.5573 11.3864C10.1257 11.6889 9.62474 11.8887 9.10874 11.9644C8.94705 11.9881 8.78539 12 8.62436 12ZM3.08515 0.766375C2.3353 0.849153 1.66975 1.24218 1.22778 1.87298C0.730788 2.58228 0.614894 3.45471 0.90982 4.2666C2.06533 7.44755 4.55244 9.93466 7.73339 11.0902C8.54526 11.3851 9.41768 11.2692 10.127 10.7722C10.7578 10.3302 11.1508 9.66469 11.2336 8.91484L8.99915 8.43603L7.94882 9.48636C7.83705 9.59813 7.66723 9.62782 7.52422 9.56061C5.2933 8.51253 3.48746 6.70669 2.43938 4.47577C2.37219 4.33274 2.40186 4.16292 2.51363 4.05117L3.56396 3.00084L3.08515 0.766375Z" fill="#ED0000"/>
</g>
<defs>
<clipPath id="clip0">
<rect width="12" height="12" fill="white"/>
</clipPath>
</defs>
</svg>
