<svg width="11" height="11" viewBox="0 0 11 11" fill="none" xmlns="http://www.w3.org/2000/svg">
<path d="M10.7007 8.07289L9.16557 6.53781C8.61733 5.98956 7.68531 6.20888 7.46602 6.92158C7.30154 7.41502 6.7533 7.68914 6.25988 7.57947C5.16339 7.30535 3.68313 5.87991 3.40901 4.7286C3.24454 4.23516 3.57349 3.68692 4.06691 3.52247C4.77962 3.30317 4.99892 2.37115 4.45068 1.82291L2.91559 0.287828C2.477 -0.0959426 1.81911 -0.0959426 1.43534 0.287828L0.393672 1.32949C-0.647992 2.42598 0.503321 5.33167 3.08007 7.90842C5.65681 10.4852 8.5625 11.6913 9.65899 10.5948L10.7007 9.55315C11.0844 9.11455 11.0844 8.45666 10.7007 8.07289Z" fill="#ED0000"/>
</svg>
