<svg width="45" height="45" viewBox="0 0 45 45" fill="none" xmlns="http://www.w3.org/2000/svg">
<path d="M42.2459 31.1085H40.8643V10.5297C40.8643 10.1634 40.568 9.86607 40.2007 9.86607C39.8344 9.86607 39.537 10.1634 39.537 10.5297V31.1085H34.9527L35.2023 29.9652H36.1155C37.142 29.9652 37.9777 29.1296 37.9777 28.1041V9.19453C37.9777 8.16765 37.142 7.33337 36.1155 7.33337H26.6487C26.2807 7.12704 26.0654 7.034 23.909 5.89794H38.7793C39.1972 5.89794 39.537 6.23749 39.537 6.65531V7.87479C39.537 8.24112 39.8344 8.53878 40.2007 8.53878C40.568 8.53878 40.8643 8.24112 40.8643 7.87479V6.65531C40.8643 5.50587 39.9298 4.57031 38.7793 4.57031C38.6139 4.57031 19.8162 4.57031 19.4098 4.57031H6.22066C5.07019 4.57031 4.13567 5.50587 4.13567 6.65531V16.4637C4.13567 16.8311 4.43195 17.1273 4.79931 17.1273C5.16563 17.1273 5.46295 16.8311 5.46295 16.4637V6.65531C5.46295 6.23749 5.80284 5.89794 6.22066 5.89794H21.0742C22.2583 6.52794 23.1317 6.98971 23.7857 7.33337H8.88451C7.85797 7.33337 7.02232 8.16765 7.02232 9.19453V28.1041C7.02232 29.1296 7.85797 29.9652 8.88451 29.9652H20.5166L20.267 31.1085H5.46295V19.1186C5.46295 18.7523 5.16563 18.455 4.79931 18.455C4.43195 18.455 4.13567 18.7523 4.13567 19.1186V31.1085H2.75414C1.23528 31.1085 0 32.3441 0 33.8616C0 35.3804 1.23528 36.6157 2.75414 36.6157H5.96146C6.32778 36.6157 6.6251 36.3184 6.6251 35.9521C6.6251 35.5857 6.32778 35.2884 5.96146 35.2884H2.75414C1.96724 35.2884 1.32763 34.6485 1.32763 33.8616C1.32763 33.0757 1.96724 32.4361 2.75414 32.4361H19.9769L19.3538 35.2884H8.61637C8.25005 35.2884 7.95238 35.5857 7.95238 35.9521C7.95238 36.3184 8.25005 36.6157 8.61637 36.6157H19.0644C18.9607 37.2076 19.3867 37.7882 20.0442 37.9317L31.6386 40.4664C32.2765 40.6103 32.9501 40.2711 33.0881 39.638L33.7483 36.6157H42.2459C43.7647 36.6157 45 35.3804 45 33.8616C45 32.3441 43.7647 31.1085 42.2459 31.1085ZM36.1155 8.66066C36.4104 8.66066 36.65 8.89961 36.65 9.19453V28.1041C36.65 28.3979 36.4104 28.6376 36.1155 28.6376H35.4927L36.4526 24.2455C36.5048 24.0099 36.4616 23.7641 36.3314 23.5516C31.7759 16.1619 31.9778 16.313 31.6403 16.0397C32.1834 13.2433 31.0676 10.3663 28.8065 8.66066H36.1155ZM8.88451 28.6376C8.58959 28.6376 8.34995 28.3979 8.34995 28.1041V9.19453C8.34995 8.89961 8.58959 8.66066 8.88451 8.66066H26.2923C26.5275 8.80108 26.6147 8.85361 27.4339 9.33701C29.6497 10.644 30.8029 13.208 30.3518 15.706C29.8203 15.8031 30.2224 15.6988 22.8371 20.6011C22.6311 20.7401 22.4894 20.9454 22.4372 21.1816L20.8071 28.6376H8.88451ZM31.8356 39.1511L20.414 36.6538C20.5486 36.0396 23.4565 22.7362 23.6999 21.6214L30.5561 17.023C30.5561 17.023 30.5561 17.0223 30.5571 17.0223C30.5695 17.014 30.6206 17.001 30.6913 17.0161C30.6924 17.0168 30.6934 17.0168 30.6951 17.0168C30.9416 17.1153 30.3944 16.5286 35.1226 24.1181C34.9262 25.0169 32.5896 35.7021 31.8356 39.1511ZM42.2459 35.2884H34.0384L34.6626 32.4361H42.2459C43.0328 32.4361 43.6724 33.0757 43.6724 33.8616C43.6724 34.6485 43.0328 35.2884 42.2459 35.2884Z" fill="#ED0000"/>
<path d="M27.3543 27.8781L27.7127 26.2374C27.963 25.0941 27.2914 24.5119 26.3215 24.2993C25.3389 24.0851 24.4975 24.3364 24.2479 25.48L23.8894 27.1208C23.6563 28.1864 24.207 28.8247 25.2806 29.0588C26.3342 29.2885 27.1198 28.9531 27.3543 27.8781ZM25.0557 27.3755L25.4141 25.7348C25.4976 25.3544 25.7434 25.226 26.1011 25.3046C26.4596 25.3825 26.6408 25.604 26.5577 25.9854L26.1993 27.6251C26.1162 28.0065 25.8584 28.1315 25.5 28.0536C25.1426 27.9756 24.9726 27.7563 25.0557 27.3755Z" fill="#ED0000"/>
<path d="M31.6038 25.5995C31.7329 25.0073 30.877 24.5417 30.5083 25.0217C24.1668 33.053 24.5541 32.548 24.5276 32.6695C24.4648 32.9583 24.6478 33.3376 25.0409 33.4235C25.2603 33.4715 25.5044 33.4043 25.6232 33.2484C26.7036 31.8826 27.0198 31.483 27.0991 31.3831C27.0998 31.3817 27.1019 31.3793 27.1049 31.3756C27.1049 31.3756 27.1053 31.3752 27.1056 31.3749C27.1053 31.3749 27.1053 31.3749 27.1053 31.3752C27.1063 31.3738 27.1073 31.3725 27.1084 31.3711C27.1115 31.3673 27.1142 31.3639 27.1159 31.3615C27.1173 31.3601 27.1187 31.3584 27.1197 31.3567C27.1207 31.3556 27.1214 31.355 27.1218 31.3543C27.1218 31.3543 27.1221 31.3539 27.1225 31.3536L27.1221 31.3539C27.1228 31.3532 27.1228 31.3532 27.1228 31.3532C31.8047 25.4302 31.5609 25.7983 31.6038 25.5995Z" fill="#ED0000"/>
<path d="M32.0801 29.9652C31.8412 29.5519 31.3767 29.3023 30.8102 29.1783C28.5913 28.6929 28.7327 30.8094 28.5727 31.1085C28.4093 31.9016 28.3293 32.1038 28.3252 32.4361C28.3146 33.2937 28.9216 33.751 29.7692 33.9371C31.8319 34.3869 31.8484 32.5298 31.9129 32.4361C32.0681 31.4309 32.4859 30.6707 32.0801 29.9652ZM31.0464 30.8633C30.9963 31.0923 30.667 32.5999 30.688 32.5034C30.6049 32.8848 30.3474 33.0105 29.989 32.9315C29.6934 32.867 29.5251 32.706 29.5234 32.4361C29.5234 32.2878 29.5509 32.2511 29.795 31.1085C29.9028 30.8613 29.8066 30.0123 30.5898 30.1829C30.9482 30.2608 31.1295 30.4819 31.0464 30.8633Z" fill="#ED0000"/>
</svg>
