<svg width="42" height="42" viewBox="0 0 42 42" fill="none" xmlns="http://www.w3.org/2000/svg">
<g clip-path="url(#clip0)">
<path d="M41.3848 5.5632H38.9238C38.5841 5.5632 38.3086 5.83866 38.3086 6.17844V6.79367L18.9002 6.79392C17.4212 6.79392 16.0307 7.36986 14.985 8.41576L14.1459 9.25485L3.69141 9.25461V8.63937C3.69141 8.2996 3.41595 8.02414 3.07617 8.02414H0.615234C0.275461 8.02414 0 8.2996 0 8.63937V16.8304C0 17.1702 0.275461 17.4457 0.615234 17.4457C0.955008 17.4457 1.23047 17.1702 1.23047 16.8304V9.25461H2.46094V26.8672H1.23047V19.2914C1.23047 18.9516 0.955008 18.6761 0.615234 18.6761C0.275461 18.6761 0 18.9516 0 19.2914V27.4824C0 27.8222 0.275461 28.0977 0.615234 28.0977H3.07617C3.41595 28.0977 3.69141 27.8222 3.69141 27.4824V26.8672L7.81233 26.8675C8.96265 26.8675 10.0442 27.3154 10.8576 28.1289L18.2661 35.5373C18.8659 36.1371 19.6534 36.4368 20.4413 36.4368C21.2289 36.4368 22.0169 36.1369 22.6164 35.5373C23.1532 35.0005 23.4666 34.3001 23.5112 33.5487C23.9165 33.7337 24.354 33.8266 24.7916 33.8266C25.5793 33.8266 26.3671 33.5267 26.9668 32.927C27.5193 32.3745 27.8165 31.6624 27.8601 30.9378C28.2658 31.1232 28.7039 31.2163 29.142 31.2163C29.9298 31.2163 30.7175 30.9165 31.3172 30.3169C31.8697 29.7644 32.1671 29.0523 32.2106 28.3276C32.6163 28.5131 33.0543 28.6062 33.4925 28.6062C34.2802 28.6062 35.0679 28.3064 35.6677 27.7066C36.5584 26.8159 36.787 25.5107 36.3549 24.4064L38.3088 24.4063V25.0215C38.3088 25.3613 38.5843 25.6367 38.9241 25.6367H41.385C41.7248 25.6367 42.0002 25.3613 42.0002 25.0215V6.17844C42 5.83866 41.7245 5.5632 41.3848 5.5632ZM34.7974 26.8366C34.0778 27.5562 32.9068 27.5563 32.1872 26.8366L27.9776 22.627C27.7374 22.3867 27.3478 22.3867 27.1076 22.627L25.3674 24.3671C25.1272 24.6074 25.1272 24.9969 25.3674 25.2372C25.6076 25.4774 25.9972 25.4774 26.2374 25.2372L27.5426 23.9321L30.447 26.8365C31.1667 27.5562 31.1667 28.7271 30.447 29.4468C29.7275 30.1663 28.5565 30.1664 27.8368 29.4468L24.4973 26.1072C24.382 25.9918 24.2255 25.927 24.0623 25.927C23.8991 25.927 23.7426 25.9918 23.6273 26.1072L21.8872 27.8473C21.6469 28.0876 21.6469 28.4772 21.8872 28.7173C22.1274 28.9576 22.517 28.9576 22.7572 28.7173L24.0623 27.4122L26.097 29.4469C26.8163 30.1666 26.8163 31.3373 26.0968 32.0568C25.3771 32.7764 24.2062 32.7764 23.4865 32.0568L21.0171 29.5874C20.9017 29.472 20.7452 29.4071 20.5821 29.4071C20.4189 29.4071 20.2624 29.472 20.147 29.5874L18.4069 31.3275C18.1666 31.5678 18.1666 31.9573 18.4069 32.1975C18.6472 32.4378 19.0367 32.4378 19.2769 32.1975L20.5821 30.8924L21.7464 32.0568C22.095 32.4054 22.287 32.8689 22.287 33.3619C22.287 33.8549 22.095 34.3184 21.7464 34.667C21.0268 35.3866 19.8558 35.3867 19.1362 34.667L11.7277 27.2586C10.6819 26.2128 9.29143 25.6367 7.81241 25.6367H3.69141V10.4851L12.9154 10.4853L7.93693 15.4638C7.35591 16.0448 7.0359 16.8173 7.0359 17.6389C7.0359 18.4606 7.35591 19.2331 7.93693 19.8142C8.51796 20.3952 9.29045 20.7152 10.1122 20.7152C10.9339 20.7152 11.7064 20.3952 12.2873 19.8142L16.6942 15.4073H24.1945C25.3448 15.4073 26.4264 15.8553 27.2398 16.6687L34.7974 24.2263C35.5171 24.946 35.517 26.117 34.7974 26.8366ZM35.4872 23.1761L28.1097 15.7986C27.0639 14.7528 25.6734 14.1767 24.1944 14.1767H16.4393C16.2761 14.1767 16.1196 14.2415 16.0043 14.357L11.4172 18.9441C11.0686 19.2927 10.6051 19.4846 10.1121 19.4846C9.61907 19.4846 9.15559 19.2926 8.80696 18.9441C8.45832 18.5954 8.26637 18.1319 8.26637 17.6389C8.26637 17.1459 8.45841 16.6825 8.80696 16.3338L15.855 9.28578C16.6684 8.47236 17.7499 8.02439 18.9002 8.02439L38.3086 8.02414V23.1758L35.4872 23.1761ZM40.7695 24.4063H39.5391V6.79367H40.7695V24.4063Z" fill="#ED0000"/>
</g>
<defs>
<clipPath id="clip0">
<rect width="42" height="42" fill="white"/>
</clipPath>
</defs>
</svg>
