<svg width="42" height="42" viewBox="0 0 42 42" fill="none" xmlns="http://www.w3.org/2000/svg">
<path d="M39.167 27.1049L24.9304 30.6886C24.8083 30.2695 24.5827 29.8738 24.2536 29.5447L19.7182 25.0093C19.1559 24.4466 18.408 24.137 17.6126 24.137H8.58442V23.1408C8.58442 22.1584 7.78558 21.3595 6.80313 21.3595H1.78097C0.798842 21.3595 0 22.1584 0 23.1408V27.9726C0 28.3136 0.276534 28.5904 0.617476 28.5904C0.958418 28.5904 1.23527 28.3136 1.23527 27.9726V23.1408C1.23527 22.8393 1.47976 22.5948 1.78097 22.5948H6.80313C7.10466 22.5948 7.34915 22.8393 7.34915 23.1408V36.7746C7.34915 37.0752 7.10466 37.3203 6.80313 37.3203H1.78097C1.47976 37.3203 1.23527 37.0752 1.23527 36.7746V30.5255C1.23527 30.1846 0.958418 29.9077 0.617476 29.9077C0.276534 29.9077 0 30.1846 0 30.5255V36.7746C0 37.7561 0.798842 38.5556 1.78097 38.5556H6.80313C7.78558 38.5556 8.58442 37.7561 8.58442 36.7746V34.3425L10.6721 34.7034C13.5425 35.1987 14.9495 36.3215 18.9328 38.1586C19.2584 38.3179 19.5862 38.5037 19.9076 38.7107C21.9776 40.045 24.6369 40.0604 26.7248 38.7459L32.5965 35.7688C32.9005 35.6147 33.0223 35.243 32.8679 34.9389C32.7137 34.6345 32.342 34.513 32.0379 34.6671C25.7494 37.8567 26.1352 37.6571 26.0878 37.6872C25.2662 38.2102 24.3177 38.4864 23.3442 38.4864C21.4723 38.4864 20.6497 37.6238 19.476 37.0493C15.45 35.1994 13.9757 34.0202 10.8823 33.486L8.58442 33.0893V25.3723H17.6126C18.0789 25.3723 18.516 25.5534 18.8454 25.8828L23.3801 30.4176C24.27 31.3074 23.6762 32.8096 22.4355 32.8096C22.0667 32.8096 21.7193 32.6657 21.4575 32.4046L17.3723 28.3177C17.131 28.0765 16.7398 28.0765 16.4985 28.3177C16.2572 28.559 16.2572 28.9503 16.4985 29.1916L20.5847 33.2784C22.0881 34.7771 24.6234 33.9535 24.9951 31.9207C25.2556 31.9297 39.2445 28.3049 39.5624 28.3049C40.7457 28.3049 41.2184 29.8536 40.2292 30.514L34.3149 33.5126C33.7372 33.8058 33.9468 34.6812 34.5944 34.6812C34.8735 34.6812 34.6322 34.7098 40.8172 31.6006C41.4225 31.2939 41.9999 30.4605 41.9999 29.5114C41.9999 27.8438 40.3667 26.8018 39.167 27.1049Z" fill="#ED0000"/>
<path d="M29.7988 15.7151V19.4283C29.7988 20.6911 30.1853 21.6864 30.9476 22.3862C31.6948 23.072 32.7526 23.42 34.0917 23.42C35.4308 23.42 36.4885 23.072 37.2358 22.3862C37.9978 21.6864 38.3842 20.6911 38.3842 19.4283V15.7151C38.3842 14.4523 37.9978 13.457 37.2358 12.7572C36.4885 12.0714 35.4308 11.7234 34.0917 11.7234C32.7526 11.7234 31.6948 12.0714 30.9476 12.7572C30.1853 13.457 29.7988 14.4523 29.7988 15.7151ZM31.0341 15.7151C31.0341 13.8861 32.0627 12.9587 34.0917 12.9587C36.1207 12.9587 37.1493 13.8861 37.1493 15.7151V19.4283C37.1493 21.2573 36.1207 22.1847 34.0917 22.1847C32.0627 22.1847 31.0341 21.2573 31.0341 19.4283V15.7151Z" fill="#ED0000"/>
<path d="M34.0917 21.2378C35.3051 21.2378 36.0014 20.5783 36.0014 19.4283V15.7151C36.0014 14.565 35.3051 13.9056 34.0917 13.9056C32.8759 13.9056 32.2065 14.5484 32.2065 15.7151V19.4283C32.2069 20.5953 32.8763 21.2378 34.0917 21.2378ZM33.4418 15.7151C33.4418 15.2895 33.495 15.1409 34.0917 15.1409C34.7024 15.1409 34.7665 15.3158 34.7665 15.7151V19.4283C34.7665 19.8275 34.7024 20.0025 34.0917 20.0025C33.4953 20.0025 33.4418 19.8538 33.4418 19.4283V15.7151Z" fill="#ED0000"/>
<path d="M16.5628 13.8563C17.3098 14.542 18.3675 14.89 19.7066 14.89C21.0457 14.89 22.1035 14.542 22.8507 13.8563C23.613 13.1561 23.9995 12.1612 23.9995 10.8983V7.18513C23.9995 5.9223 23.613 4.92703 22.8507 4.2272C22.1035 3.54115 21.0457 3.19348 19.7066 3.19348C18.3675 3.19348 17.3098 3.54147 16.5628 4.2272C15.8005 4.92703 15.4141 5.9223 15.4141 7.18513V10.8983C15.4141 12.1612 15.8005 13.1564 16.5628 13.8563ZM16.6493 7.18513C16.6493 5.35609 17.6779 4.42876 19.7066 4.42876C21.7356 4.42876 22.7642 5.35609 22.7642 7.18513V10.8983C22.7642 12.7274 21.7356 13.6547 19.7066 13.6547C17.6779 13.6547 16.6493 12.7274 16.6493 10.8983V7.18513Z" fill="#ED0000"/>
<path d="M19.7068 12.7078C20.9206 12.7078 21.6169 12.0484 21.6169 10.8983V7.18513C21.6169 6.0351 20.9206 5.37564 19.7068 5.37564C18.4914 5.37564 17.822 6.01843 17.822 7.18513V10.8983C17.822 12.0654 18.4914 12.7078 19.7068 12.7078ZM19.0573 7.18513C19.0573 6.7596 19.1105 6.61092 19.7068 6.61092C20.3179 6.61092 20.3817 6.78587 20.3817 7.18513V10.8983C20.3817 11.2976 20.3179 11.4725 19.7068 11.4725C19.1105 11.4725 19.0573 11.3239 19.0573 10.8983V7.18513Z" fill="#ED0000"/>
<path d="M22.3833 24.2226C23.0969 24.2226 23.7496 23.8391 24.046 23.2463L26.5265 18.2985C26.6794 17.9937 26.5563 17.6227 26.2513 17.4698C25.9462 17.317 25.5755 17.44 25.4226 17.7451L22.9418 22.6932C22.8537 22.8691 22.6294 22.9874 22.3833 22.9874C21.8892 22.9874 21.6152 22.4772 21.785 22.186C21.8017 22.1578 31.0088 3.71675 31.0126 3.70842C31.2494 3.20149 32.1896 3.50174 32.1896 4.07435C32.1896 4.40953 32.4228 3.70649 26.5297 15.5366C26.3769 15.8417 26.5002 16.2127 26.805 16.3656C27.11 16.5184 27.4811 16.3951 27.6339 16.0903C33.487 4.4153 33.2633 4.86615 33.2848 4.81167C34.1862 2.55613 30.8389 1.18628 29.8972 3.1781L20.7074 21.5826C20.0746 22.7012 20.9628 24.2226 22.3833 24.2226Z" fill="#ED0000"/>
</svg>
