<svg width="40" height="40" viewBox="0 0 40 40" fill="none" xmlns="http://www.w3.org/2000/svg">
<path d="M35.3721 2.67502H31.248C30.9198 2.67502 30.6539 2.94103 30.6539 3.26908C30.6539 3.59713 30.9198 3.86314 31.248 3.86314H35.3721C37.2688 3.86314 38.812 5.40588 38.812 7.30213V25.9718C38.812 27.8681 37.2689 29.4108 35.3721 29.4108H4.62711C2.73086 29.4108 1.18813 27.8681 1.18813 25.9718V7.30213C1.18813 5.40588 2.73086 3.86314 4.62711 3.86314H29.2676C29.5957 3.86314 29.8616 3.59713 29.8616 3.26908C29.8616 2.94103 29.5957 2.67502 29.2676 2.67502H4.62711C2.0757 2.67502 0 4.75072 0 7.30213V25.9718C0 28.5231 2.0757 30.5989 4.62711 30.5989H14.059V33.0113C12.1163 33.1372 10.5739 34.7569 10.5739 36.731C10.5739 37.059 10.8399 37.325 11.168 37.325H28.8321C29.1602 37.325 29.4262 37.059 29.4262 36.731C29.4262 34.757 27.8839 33.1371 25.9411 33.0113V30.5989H35.372C37.9239 30.5989 40 28.5232 40 25.9718V7.30213C40 4.75072 37.924 2.67502 35.3721 2.67502ZM15.247 30.5989H24.753V33.0025H24.753H15.247V30.5989ZM28.1679 36.1369H11.8321C12.1003 35.0217 13.1061 34.1905 14.3024 34.1905H25.6977C26.8939 34.1906 27.8997 35.0217 28.1679 36.1369Z" fill="#ED0000"/>
<path d="M30.2384 15.6601L34.028 19.4495C34.2601 19.6816 34.6361 19.6815 34.8681 19.4495C35.1002 19.2175 35.1002 18.8414 34.8681 18.6095L31.323 15.0644C31.7795 13.1769 31.229 11.1906 29.8435 9.80531C28.8896 8.8514 27.6239 8.27538 26.2794 8.18335C24.9491 8.09234 23.6291 8.47913 22.5645 9.27257C22.3991 9.39585 22.3094 9.59601 22.3277 9.80148C22.3461 10.0069 22.4695 10.1882 22.654 10.2804L25.2981 11.6011C25.6774 11.7905 25.9602 12.1163 26.0945 12.5185C26.2286 12.9206 26.1983 13.351 26.0088 13.7302C25.8193 14.1094 25.4936 14.3923 25.0915 14.5265C24.6893 14.6608 24.2588 14.6303 23.8797 14.4409L21.1745 13.0896C20.9929 12.9989 20.7775 13.0072 20.6033 13.1117C20.4292 13.2162 20.3206 13.4024 20.3152 13.6054C20.2745 15.1524 20.8545 16.6067 21.9483 17.7006C23.3592 19.1116 25.376 19.6543 27.2888 19.1602L33.7735 25.6448C33.8895 25.7608 34.0416 25.8188 34.1937 25.8188C34.3457 25.8188 34.4977 25.7609 34.6138 25.6448C34.8459 25.4128 34.8459 25.0367 34.6138 24.8048L27.8802 18.0712C27.7215 17.9127 27.4872 17.8569 27.2744 17.9269C25.6876 18.4493 23.9687 18.0407 22.7887 16.8605C22.1652 16.2369 21.7538 15.4645 21.5863 14.6234L23.349 15.5038C24.0121 15.8351 24.7645 15.8883 25.4679 15.6536C26.171 15.4189 26.7407 14.9244 27.072 14.2612C27.4033 13.598 27.4564 12.8455 27.2217 12.1423C26.987 11.4391 26.4925 10.8694 25.8294 10.5382L24.1726 9.71062C25.7863 9.02742 27.7213 9.36296 29.0038 10.6455C30.1624 11.8041 30.5794 13.497 30.0916 15.0635C30.0258 15.2741 30.0823 15.5039 30.2384 15.6601Z" fill="#ED0000"/>
<path d="M24.9517 24.8031L21.8637 21.715C21.3846 21.236 20.7478 20.9722 20.0704 20.9722C19.6791 20.9723 19.3016 21.0607 18.9602 21.2274L13.4928 15.7601L13.1929 13.076C13.1718 12.8874 13.0618 12.7202 12.897 12.626L8.22024 9.95697C7.98759 9.82416 7.69501 9.86354 7.50571 10.0528L5.49798 12.0606C5.30861 12.2499 5.26939 12.5424 5.40212 12.7751L8.0711 17.4518C8.16517 17.6167 8.33243 17.7267 8.5211 17.7478L11.3119 18.0596L16.7217 23.4694C16.4954 23.9358 16.4125 24.4671 16.4984 24.9906C16.5516 25.3144 16.8576 25.5331 17.1809 25.4805C17.5047 25.4273 17.724 25.1217 17.6709 24.798C17.6005 24.3697 17.7413 23.931 18.0477 23.6247L19.1172 22.5552C19.3718 22.3006 19.7103 22.1604 20.0704 22.1604C20.4304 22.1604 20.7688 22.3006 21.0234 22.5552L24.1115 25.6432C24.2275 25.7592 24.3796 25.8172 24.5316 25.8172C24.6837 25.8172 24.8357 25.7593 24.9518 25.6432C25.1837 25.4111 25.1837 25.035 24.9517 24.8031ZM11.2599 16.8584L8.95313 16.6007L6.65861 12.58L8.02501 11.2136L12.0456 13.5082L12.3033 15.8149L11.2599 16.8584ZM17.4622 22.5299L12.3654 17.4331L12.9255 16.873L18.0223 21.9698L17.4622 22.5299Z" fill="#ED0000"/>
<path d="M35.3722 5.71719H4.62687C3.75335 5.71719 3.04272 6.42852 3.04272 7.3029V25.9706C3.04272 26.845 3.75335 27.5563 4.62687 27.5563H5.80405C6.1321 27.5563 6.39811 27.2903 6.39811 26.9623C6.39811 26.6342 6.1321 26.3682 5.80405 26.3682H4.62687C4.40851 26.3682 4.23085 26.1899 4.23085 25.9706V7.3029C4.23085 7.08368 4.40851 6.90524 4.62687 6.90524H35.3723C35.5916 6.90524 35.77 7.0836 35.77 7.3029V25.9706C35.77 26.1202 35.6862 26.2562 35.5512 26.3256C35.4962 26.3539 35.436 26.3682 35.3724 26.3682H7.78436C7.45632 26.3682 7.1903 26.6342 7.1903 26.9623C7.1903 27.2903 7.45632 27.5564 7.78436 27.5564H35.3723C35.6233 27.5564 35.873 27.4962 36.0943 27.3823C36.627 27.1086 36.9579 26.5677 36.9579 25.9707V7.3029C36.958 6.42852 36.2466 5.71719 35.3722 5.71719Z" fill="#ED0000"/>
</svg>
