<svg width="43" height="43" viewBox="0 0 43 43" fill="none" xmlns="http://www.w3.org/2000/svg">
<path d="M42.3007 20.4568C41.8536 19.924 41.2438 19.5777 40.5447 19.4483L40.2163 14.9916C40.5403 14.9885 40.8165 14.7552 40.8729 14.4355L40.9996 13.7173C41.1353 12.9475 40.946 12.1876 40.4801 11.6326C40.0149 11.0781 39.3337 10.7727 38.5619 10.7727H33.6191L33.8597 9.40833C33.928 9.02083 33.8291 8.63391 33.5884 8.34702C33.35 8.06298 32.9917 7.90005 32.6052 7.90005H8.27448C7.55498 7.90005 6.89268 8.45981 6.76662 9.1746L4.61402 21.3832C4.54952 21.7493 4.794 22.0985 5.16017 22.163C5.19964 22.17 5.23894 22.1734 5.27783 22.1734C5.5984 22.1734 5.88252 21.9435 5.94005 21.6169L8.09273 9.40833C8.10693 9.32796 8.2104 9.24649 8.27439 9.24649L32.5208 9.24658L30.3808 21.3832C30.3163 21.7493 30.5607 22.0985 30.927 22.163C31.2927 22.2275 31.6424 21.9831 31.7069 21.6169L31.8621 20.7368H39.9133C39.9136 20.7368 39.9139 20.7368 39.9142 20.7368C39.9146 20.7368 39.9149 20.7368 39.9152 20.7368C40.4716 20.7369 40.9525 20.9448 41.2692 21.3221C41.4871 21.5819 41.6143 21.9052 41.6448 22.2629H39.4084C39.0816 22.2629 38.8021 22.4975 38.7453 22.8193L38.4921 24.2556C38.3901 24.8342 38.5342 25.4076 38.8875 25.8286C39.2358 26.2439 39.7647 26.482 40.3382 26.482H40.9721L40.4497 29.4444H38.6722C38.5552 28.8519 38.2991 28.3069 37.911 27.8446C37.2225 27.0238 36.2091 26.5719 35.0579 26.5719C33.212 26.5719 31.4311 27.7796 30.5974 29.4445H30.3268L31.2004 24.4895C31.2649 24.1233 31.0205 23.7741 30.6543 23.7096C30.2883 23.6449 29.9389 23.8895 29.8744 24.2558L28.9595 29.4446H16.496C16.3791 28.8521 16.123 28.3072 15.7349 27.8447C15.0462 27.024 14.0329 26.5721 12.8817 26.5721C11.0358 26.5721 9.25491 27.7797 8.4212 29.4447L4.55976 29.4446L4.82885 27.9186H7.85472C8.22652 27.9186 8.52802 27.6172 8.52802 27.2453C8.52802 26.8735 8.2266 26.572 7.85472 26.572H0.673303C0.301504 26.572 0 26.8734 0 27.2453C0 27.6171 0.30142 27.9186 0.673303 27.9186H3.46167L3.22105 29.2829C3.15277 29.6704 3.25171 30.0573 3.49241 30.3442C3.73075 30.6282 4.08911 30.7912 4.47561 30.7912H7.98397C7.80148 31.9333 8.07577 33.0092 8.76234 33.8273C9.45101 34.6481 10.4643 35.1 11.6155 35.1C13.907 35.1 16.0992 33.2397 16.5024 30.9528C16.5119 30.8987 16.5194 30.8448 16.5269 30.7911H30.1602C29.9776 31.9331 30.2519 33.009 30.9386 33.8272C31.6273 34.648 32.6405 35.0999 33.7918 35.0999C36.0832 35.0999 38.2755 33.2396 38.6787 30.9528C38.6882 30.8986 38.6956 30.8448 38.7032 30.791H41.0149C41.3416 30.791 41.6211 30.5564 41.6779 30.2346L42.9442 23.0531C43.1161 22.0783 42.8875 21.1562 42.3007 20.4568ZM32.0997 19.3905L32.8753 14.9919H38.8664L39.1905 19.3905H32.0997ZM39.6735 13.4836L39.6449 13.6453H33.1126L33.3817 12.1193H38.5619C38.9287 12.1193 39.2436 12.2538 39.4486 12.4981C39.661 12.7512 39.741 13.1011 39.6735 13.4836ZM15.1764 30.7192C14.8814 32.3924 13.284 33.7536 11.6155 33.7536C10.8693 33.7536 10.2222 33.4724 9.79384 32.9619C9.35309 32.4366 9.18512 31.7232 9.32092 30.9531C9.61596 29.2799 11.2133 27.9187 12.8818 27.9187C13.6281 27.9187 14.2751 28.1999 14.7035 28.7105C15.1442 29.2356 15.3122 29.9491 15.1764 30.7192ZM37.3526 30.7192C37.0575 32.3924 35.4601 33.7536 33.7917 33.7536C33.0454 33.7536 32.3984 33.4724 31.97 32.9618C31.5292 32.4365 31.3613 31.7231 31.4971 30.953C31.792 29.2798 33.3895 27.9187 35.0579 27.9187C35.8041 27.9187 36.4512 28.1998 36.8796 28.7104C37.3204 29.2356 37.4884 29.9491 37.3526 30.7192ZM41.2095 25.1358H40.3382V25.1357C40.1586 25.1357 40.0136 25.0761 39.9189 24.9634C39.8208 24.8463 39.7849 24.6781 39.8182 24.4897L39.9734 23.6098H41.4786L41.2095 25.1358Z" fill="#ED0000"/>
<path d="M13.3586 29.8916C13.1202 29.6076 12.7619 29.4447 12.3753 29.4447C11.6558 29.4447 10.9935 30.0044 10.8674 30.7192C10.7992 31.1067 10.8981 31.4936 11.1388 31.7805C11.3771 32.0646 11.7355 32.2275 12.122 32.2275C12.8415 32.2275 13.5038 31.6677 13.6299 30.953C13.6982 30.5654 13.5994 30.1786 13.3586 29.8916Z" fill="#ED0000"/>
<path d="M35.5347 29.8916C35.2963 29.6076 34.9379 29.4447 34.5515 29.4447C33.832 29.4447 33.1697 30.0044 33.0437 30.7191C32.9755 31.1067 33.0742 31.4936 33.315 31.7805C33.5534 32.0646 33.9117 32.2275 34.2982 32.2275C35.0177 32.2275 35.68 31.6677 35.8061 30.953C35.8744 30.5654 35.7755 30.1786 35.5347 29.8916Z" fill="#ED0000"/>
<path d="M27.1584 26.5721H18.627C18.2552 26.5721 17.9537 26.8735 17.9537 27.2454C17.9537 27.6172 18.2552 27.9187 18.627 27.9187H27.1584C27.5302 27.9187 27.8317 27.6173 27.8317 27.2454C27.8316 26.8735 27.5302 26.5721 27.1584 26.5721Z" fill="#ED0000"/>
<path d="M15.0363 23.6995H2.61617C2.24437 23.6995 1.94287 24.0009 1.94287 24.3728C1.94287 24.7446 2.24421 25.0461 2.61617 25.0461H15.0363C15.4081 25.0461 15.7096 24.7447 15.7096 24.3728C15.7096 24.0009 15.4082 23.6995 15.0363 23.6995Z" fill="#ED0000"/>
<path d="M27.8934 20.9907L25.4008 18.8363C25.1194 18.5932 24.6943 18.624 24.4511 18.9054C24.2079 19.1867 24.2389 19.6119 24.5202 19.8551L25.6446 20.827H8.57284C8.20104 20.827 7.89954 21.1284 7.89954 21.5003C7.89954 21.8721 8.20096 22.1736 8.57284 22.1736H25.2176L23.8289 23.0935C23.5189 23.2988 23.4341 23.7166 23.6395 24.0266C23.769 24.2222 23.9831 24.3281 24.2013 24.3281C24.329 24.3281 24.4581 24.2918 24.5725 24.216L27.825 22.0615C28.0007 21.9453 28.1116 21.7535 28.1251 21.5432C28.1385 21.3328 28.0529 21.1284 27.8934 20.9907Z" fill="#ED0000"/>
</svg>
