<svg width="15" height="15" viewBox="0 0 15 15" fill="none" xmlns="http://www.w3.org/2000/svg">
<g clip-path="url(#clip0)">
<path d="M0.171855 7.08524C0.172031 7.08506 0.172178 7.08486 0.172383 7.08468L3.23402 4.03781C3.46339 3.80956 3.83438 3.81041 4.06269 4.0398C4.29097 4.26917 4.29009 4.64015 4.06072 4.86843L2.00514 6.91406H14.4141C14.7377 6.91406 15 7.17638 15 7.5C15 7.82361 14.7377 8.08593 14.4141 8.08593H2.00517L4.06069 10.1316C4.29006 10.3598 4.29094 10.7308 4.06266 10.9602C3.83435 11.1896 3.46333 11.1904 3.23399 10.9622L0.172354 7.91531C0.172177 7.91513 0.172031 7.91493 0.171825 7.91475C-0.0576563 7.68571 -0.0569239 7.31352 0.171855 7.08524Z" fill="#ED0000"/>
</g>
<defs>
<clipPath id="clip0">
<rect width="15" height="15" fill="white" transform="matrix(-1 0 0 1 15 0)"/>
</clipPath>
</defs>
</svg>
