<svg width="17" height="17" viewBox="0 0 17 17" fill="none" xmlns="http://www.w3.org/2000/svg">
<path d="M16.7923 15.7908L11.958 10.9565C12.8944 9.79983 13.4582 8.33004 13.4582 6.72923C13.4582 3.01902 10.4393 0.00012207 6.72908 0.00012207C3.01886 0.00012207 0 3.01899 0 6.7292C0 10.4394 3.0189 13.4583 6.72911 13.4583C8.32992 13.4583 9.79971 12.8945 10.9564 11.9581L15.7907 16.7924C15.9288 16.9305 16.1102 17 16.2915 17C16.4729 17 16.6542 16.9305 16.7923 16.7924C17.0693 16.5155 17.0693 16.0678 16.7923 15.7908ZM6.72911 12.0416C3.79946 12.0416 1.41666 9.65885 1.41666 6.7292C1.41666 3.79955 3.79946 1.41675 6.72911 1.41675C9.65876 1.41675 12.0416 3.79955 12.0416 6.7292C12.0416 9.65885 9.65873 12.0416 6.72911 12.0416Z" fill="#C8C8C8"/>
</svg>
