<svg width="22" height="22" viewBox="0 0 22 22" fill="none" xmlns="http://www.w3.org/2000/svg">
<path d="M17.419 15.5811C15.9064 15.5811 14.6759 16.8116 14.6759 18.3242C14.6759 19.8367 15.9065 21.0673 17.419 21.0673C18.9316 21.0673 20.1622 19.8367 20.1622 18.3242C20.1622 16.8116 18.9316 15.5811 17.419 15.5811ZM17.419 19.4215C16.8139 19.4215 16.3218 18.9293 16.3218 18.3242C16.3218 17.7191 16.8139 17.2269 17.419 17.2269C18.0242 17.2269 18.5163 17.7191 18.5163 18.3242C18.5163 18.9293 18.0242 19.4215 17.419 19.4215Z" fill="white"/>
<path d="M21.8251 4.97907C21.6693 4.77965 21.4304 4.66333 21.1772 4.66333H5.0798L4.33914 1.56441C4.25054 1.1941 3.91942 0.932678 3.53867 0.932678H0.822942C0.368416 0.932635 0 1.30105 0 1.75558C0 2.2101 0.368416 2.57852 0.822942 2.57852H2.88911L5.56367 13.7695C5.65227 14.1401 5.98339 14.4012 6.36414 14.4012H19.1747C19.553 14.4012 19.8827 14.1434 19.9735 13.7763L21.976 5.68402C22.0366 5.43828 21.9809 5.17849 21.8251 4.97907ZM18.5309 12.7554H7.0137L5.47313 6.30922H20.1257L18.5309 12.7554Z" fill="white"/>
<path d="M7.4614 15.5811C5.94881 15.5811 4.71826 16.8116 4.71826 18.3242C4.71826 19.8367 5.94885 21.0673 7.4614 21.0673C8.97395 21.0673 10.2045 19.8367 10.2045 18.3242C10.2045 16.8116 8.97395 15.5811 7.4614 15.5811ZM7.4614 19.4215C6.85627 19.4215 6.36415 18.9293 6.36415 18.3242C6.36415 17.7191 6.85627 17.2269 7.4614 17.2269C8.06653 17.2269 8.55866 17.7191 8.55866 18.3242C8.55866 18.9293 8.06653 19.4215 7.4614 19.4215Z" fill="white"/>
</svg>
