<svg width="18" height="18" viewBox="0 0 18 18" fill="none" xmlns="http://www.w3.org/2000/svg">
<path d="M14.252 12.7482C13.0144 12.7482 12.0076 13.755 12.0076 14.9926C12.0076 16.2301 13.0144 17.2369 14.252 17.2369C15.4895 17.2369 16.4963 16.2301 16.4963 14.9926C16.4963 13.755 15.4895 12.7482 14.252 12.7482ZM14.252 15.8903C13.7568 15.8903 13.3542 15.4877 13.3542 14.9926C13.3542 14.4974 13.7568 14.0948 14.252 14.0948C14.7471 14.0948 15.1497 14.4974 15.1497 14.9926C15.1497 15.4877 14.7471 15.8903 14.252 15.8903Z" fill="white"/>
<path d="M17.8569 4.07381C17.7294 3.91064 17.5339 3.81548 17.3268 3.81548H4.1562L3.5502 1.27999C3.47771 0.977014 3.2068 0.763123 2.89527 0.763123H0.673316C0.301431 0.763087 0 1.06452 0 1.4364C0 1.80829 0.301431 2.10972 0.673316 2.10972H2.36381L4.55209 11.266C4.62458 11.5692 4.8955 11.7828 5.20702 11.7828H15.6884C15.9979 11.7828 16.2677 11.5719 16.3419 11.2716L17.9804 4.65058C18.0299 4.44952 17.9844 4.23697 17.8569 4.07381ZM15.1616 10.4362H5.73848L4.47802 5.16211H16.4665L15.1616 10.4362Z" fill="white"/>
<path d="M6.1048 12.7482C4.86722 12.7482 3.86041 13.755 3.86041 14.9926C3.86041 16.2301 4.86726 17.2369 6.1048 17.2369C7.34234 17.2369 8.34919 16.2301 8.34919 14.9926C8.34919 13.755 7.34234 12.7482 6.1048 12.7482ZM6.1048 15.8903C5.60969 15.8903 5.20705 15.4877 5.20705 14.9926C5.20705 14.4974 5.60969 14.0948 6.1048 14.0948C6.59991 14.0948 7.00256 14.4974 7.00256 14.9926C7.00256 15.4877 6.59991 15.8903 6.1048 15.8903Z" fill="white"/>
</svg>
