<svg width="20" height="20" viewBox="0 0 20 20" fill="none" xmlns="http://www.w3.org/2000/svg">
<path d="M0 1C0 0.447715 0.447715 0 1 0H3C3.55228 0 4 0.447715 4 1V3C4 3.55228 3.55228 4 3 4H1C0.447715 4 0 3.55228 0 3V1Z" fill="#222222"/>
<path d="M0 9C0 8.44772 0.447715 8 1 8H3C3.55228 8 4 8.44772 4 9V11C4 11.5523 3.55228 12 3 12H1C0.447715 12 0 11.5523 0 11V9Z" fill="#222222"/>
<path d="M0 17C0 16.4477 0.447715 16 1 16H3C3.55228 16 4 16.4477 4 17V19C4 19.5523 3.55228 20 3 20H1C0.447715 20 0 19.5523 0 19V17Z" fill="#222222"/>
<path d="M8 1C8 0.447715 8.44772 0 9 0H11C11.5523 0 12 0.447715 12 1V3C12 3.55228 11.5523 4 11 4H9C8.44772 4 8 3.55228 8 3V1Z" fill="#222222"/>
<path d="M8 9C8 8.44772 8.44772 8 9 8H11C11.5523 8 12 8.44772 12 9V11C12 11.5523 11.5523 12 11 12H9C8.44772 12 8 11.5523 8 11V9Z" fill="#222222"/>
<path d="M8 17C8 16.4477 8.44772 16 9 16H11C11.5523 16 12 16.4477 12 17V19C12 19.5523 11.5523 20 11 20H9C8.44772 20 8 19.5523 8 19V17Z" fill="#222222"/>
<path d="M16 1C16 0.447715 16.4477 0 17 0H19C19.5523 0 20 0.447715 20 1V3C20 3.55228 19.5523 4 19 4H17C16.4477 4 16 3.55228 16 3V1Z" fill="#222222"/>
<path d="M16 9C16 8.44772 16.4477 8 17 8H19C19.5523 8 20 8.44772 20 9V11C20 11.5523 19.5523 12 19 12H17C16.4477 12 16 11.5523 16 11V9Z" fill="#222222"/>
<path d="M16 17C16 16.4477 16.4477 16 17 16H19C19.5523 16 20 16.4477 20 17V19C20 19.5523 19.5523 20 19 20H17C16.4477 20 16 19.5523 16 19V17Z" fill="#222222"/>
</svg>
