<svg width="15" height="15" viewBox="0 0 15 15" fill="none" xmlns="http://www.w3.org/2000/svg">
<path d="M8.00999 8.47469C7.83844 8.64635 7.56024 8.64635 7.38858 8.47469L5.39158 6.4777C5.30918 6.3953 5.26284 6.28349 5.26284 6.16699C5.26284 6.05038 5.30918 5.93868 5.39158 5.85617L5.74658 5.50129L4.70391 4.45862L3.84972 5.31281C3.56224 5.60028 3.56236 6.068 3.84972 6.35548L7.5108 10.0168C7.64916 10.1551 7.83432 10.2312 8.03219 10.2312C8.23006 10.2312 8.41523 10.155 8.55359 10.0167L9.40777 9.1626L8.3651 8.11981L8.00999 8.47469Z" fill="#8500FF"/>
<path d="M14.3697 5.29427C14.3697 3.88538 13.8176 2.55741 12.8149 1.55479C11.8122 0.552177 10.4843 0 9.07551 0H5.93857C5.93857 0 5.93857 0 5.93845 0C4.5298 0 3.20183 0.552177 2.19933 1.55468C1.19671 2.5573 0.644531 3.88538 0.644531 5.29415V7.7599C0.644531 8.85086 0.977325 9.9004 1.60698 10.795C2.16248 11.5842 2.90955 12.2005 3.78056 12.5915V14.0078C3.78056 14.7401 4.1906 14.9999 4.5417 15C4.79256 15 5.04353 14.8762 5.28774 14.6321L6.86554 13.054H9.07562C10.4844 13.054 11.8124 12.5019 12.815 11.4993C13.8176 10.4966 14.3698 9.16866 14.3698 7.7599L14.3697 5.29427ZM10.34 9.4733L9.17496 10.6382C8.87054 10.9426 8.46474 11.11 8.03215 11.11C7.59956 11.11 7.19376 10.9425 6.88934 10.6382L3.22815 6.97689C2.59815 6.34666 2.59815 5.32139 3.22815 4.69128L4.39316 3.52638C4.47556 3.44387 4.58725 3.39764 4.70387 3.39764C4.82037 3.39764 4.93217 3.44387 5.01457 3.52638L6.67877 5.19058C6.76117 5.27298 6.8074 5.38479 6.8074 5.50129C6.8074 5.61779 6.76117 5.7296 6.67866 5.812L6.32378 6.16688L7.69936 7.54246L8.05435 7.18746C8.22601 7.01591 8.50422 7.01591 8.67577 7.18758L10.34 8.85178C10.4225 8.93417 10.4687 9.04598 10.4687 9.16248C10.4687 9.2791 10.4225 9.39091 10.34 9.4733ZM7.1743 4.26624C7.1743 4.02363 7.37103 3.82679 7.61375 3.82679C9.13639 3.82679 10.3752 5.0655 10.3752 6.58802C10.3752 6.83075 10.1785 7.02747 9.93576 7.02747C9.69315 7.02747 9.49631 6.83075 9.49631 6.58802C9.49631 5.55016 8.65185 4.7057 7.61375 4.7057C7.37103 4.7057 7.1743 4.50897 7.1743 4.26624ZM11.8184 7.0277C11.5757 7.0277 11.379 6.83086 11.379 6.58825C11.3791 5.58243 10.9874 4.63692 10.2762 3.92567C9.56497 3.21453 8.61946 2.8228 7.61364 2.8228C7.37103 2.8228 7.17419 2.62608 7.17419 2.38335C7.17419 2.14073 7.37103 1.94389 7.61364 1.94389C8.85418 1.94389 10.0204 2.42706 10.8976 3.30425C11.7749 4.18144 12.258 5.34771 12.2579 6.58825C12.2579 6.83086 12.0612 7.0277 11.8184 7.0277Z" fill="#8500FF"/>
</svg>
