<svg width="24" height="24" viewBox="0 0 24 24" fill="none" xmlns="http://www.w3.org/2000/svg">
<path d="M16.6875 0.75H7.3125C3.69375 0.75 0.75 3.69375 0.75 7.3125V14.3438C0.75 17.4375 2.95547 20.0944 5.90625 20.7473V22.3125C5.90625 22.6373 6.07453 22.9392 6.35109 23.1098C6.50156 23.2027 6.67219 23.25 6.84375 23.25C6.98719 23.25 7.13063 23.2172 7.26328 23.1511L11.753 20.9062H16.6875C20.3062 20.9062 23.25 17.9625 23.25 14.3438V7.3125C23.25 3.69375 20.3062 0.75 16.6875 0.75ZM6.92062 19.0158C4.51219 18.8161 2.625 16.7639 2.625 14.3438V7.3125C2.625 4.72781 4.72781 2.625 7.3125 2.625H16.6875C19.2722 2.625 21.375 4.72781 21.375 7.3125V14.3438C21.375 16.9284 19.2722 19.0312 16.6875 19.0312H11.5312C11.5223 19.0312 11.5144 19.0336 11.5055 19.0341C11.4698 19.035 11.4347 19.0397 11.3991 19.0448C11.3719 19.0486 11.3442 19.0519 11.318 19.0584C11.2884 19.0655 11.2598 19.0758 11.2308 19.0856C11.1994 19.0964 11.1684 19.1067 11.1389 19.1208C11.13 19.125 11.1211 19.1264 11.1122 19.1311L7.78125 20.7956V19.95C7.77984 19.8586 7.76344 19.6242 7.59937 19.4006C7.3575 19.0711 6.98531 19.0228 6.92062 19.0158Z" fill="#843BC7"/>
<path d="M13.8135 12.8975C13.4005 12.4845 12.8516 12.2567 12.2676 12.2567C11.6835 12.2567 11.1346 12.4845 10.7212 12.8975L9.8024 13.8172C9.441 13.4933 9.09787 13.1487 8.7735 12.7873L9.69319 11.8672C10.5454 11.0145 10.5454 9.62702 9.69319 8.77389L8.31788 7.39812C8.01507 7.09436 7.59694 6.95327 7.17272 7.01374C6.74757 7.0728 6.38476 7.32218 6.17663 7.69718L5.2246 9.41233C4.89506 10.0058 4.93022 10.7211 5.31647 11.2798L6.16163 12.5005C6.35616 12.7836 6.561 13.0587 6.77053 13.318C7.50412 14.2456 8.34553 15.087 9.26334 15.8145C9.2685 15.8188 9.27319 15.823 9.27834 15.8267C9.54131 16.0386 9.81412 16.2416 10.0851 16.4272L11.3076 17.2752C11.6118 17.4861 11.9624 17.593 12.3149 17.593C12.6098 17.593 12.9055 17.5185 13.1755 17.368L14.8902 16.415C15.2647 16.2069 15.5136 15.8436 15.5727 15.4189C15.6318 14.9947 15.4921 14.5775 15.1897 14.2747L13.8135 12.8975ZM8.36663 10.5416L7.6096 11.2991L6.89476 10.2664L7.47976 9.21218L8.36663 10.1C8.48851 10.2214 8.48851 10.4197 8.36663 10.5416ZM12.3219 15.6973L11.2898 14.982L12.0477 14.2236C12.1269 14.1439 12.2198 14.1322 12.2676 14.1322C12.3154 14.1322 12.4082 14.1439 12.4874 14.2236L13.3757 15.1123L12.3219 15.6973Z" fill="#843BC7"/>
<path d="M13.053 4.0076C12.5379 3.94198 12.071 4.30854 12.0072 4.82229C11.9435 5.33604 12.3086 5.80432 12.8224 5.8676C15.2707 6.17089 17.1668 8.09464 17.4335 10.5453C17.4855 11.0257 17.8919 11.3815 18.3644 11.3815C18.3982 11.3815 18.4329 11.3796 18.4671 11.3759C18.9818 11.3201 19.354 10.8575 19.2977 10.3428C18.9363 7.02308 16.3685 4.41823 13.053 4.0076Z" fill="#843BC7"/>
<path d="M12.8249 8.86816C13.7366 8.97879 14.4402 9.69363 14.5363 10.6058C14.5869 11.0872 14.9938 11.4449 15.4672 11.4449C15.5 11.4449 15.5333 11.443 15.5666 11.4397C16.0813 11.3854 16.4549 10.9236 16.4005 10.4089C16.212 8.62253 14.8349 7.22378 13.0508 7.00674C12.5375 6.94534 12.0693 7.31003 12.0069 7.82425C11.9446 8.33847 12.3111 8.80535 12.8249 8.86816Z" fill="#843BC7"/>
</svg>
