<svg width="15" height="15" viewBox="0 0 15 15" fill="none" xmlns="http://www.w3.org/2000/svg">
<g clip-path="url(#clip0)">
<path d="M7.5 3.02933C4.63409 3.02933 2.03513 4.59729 0.117367 7.14409C-0.0391224 7.35274 -0.0391224 7.64424 0.117367 7.85289C2.03513 10.4028 4.63409 11.9707 7.5 11.9707C10.3659 11.9707 12.9649 10.4028 14.8826 7.85596C15.0391 7.64731 15.0391 7.35581 14.8826 7.14716C12.9649 4.59729 10.3659 3.02933 7.5 3.02933ZM7.70558 10.6482C5.80316 10.7679 4.23213 9.19993 4.35179 7.29444C4.44998 5.72341 5.72338 4.45001 7.29442 4.35182C9.19684 4.23215 10.7679 5.80012 10.6482 7.70561C10.5469 9.27357 9.27355 10.547 7.70558 10.6482ZM7.61046 9.19379C6.58561 9.25823 5.73872 8.41441 5.80623 7.38956C5.85839 6.54268 6.54572 5.85842 7.39261 5.80318C8.41746 5.73875 9.26435 6.58256 9.19684 7.60742C9.14161 8.45737 8.45428 9.14163 7.61046 9.19379Z" fill="#333639"/>
</g>
<defs>
<clipPath id="clip0">
<rect width="15" height="15" fill="white"/>
</clipPath>
</defs>
</svg>
