<svg width="25" height="15" viewBox="0 0 25 15" fill="none" xmlns="http://www.w3.org/2000/svg">
<path d="M20.7448 8.57075C20.3406 8.06034 20.4563 7.83325 20.7448 7.377C20.75 7.3718 24.0865 2.76138 24.4302 1.19784L24.4323 1.19679C24.6031 0.627002 24.4323 0.208252 23.6063 0.208252H20.8729C20.1771 0.208252 19.8563 0.567627 19.6844 0.96971C19.6844 0.96971 18.2927 4.30096 16.324 6.46034C15.6885 7.08429 15.3948 7.2843 15.0479 7.2843C14.8771 7.2843 14.6115 7.08429 14.6115 6.5145V1.19679C14.6115 0.51346 14.4167 0.208252 13.8406 0.208252H9.54271C9.10625 0.208252 8.84688 0.527002 8.84688 0.823877C8.84688 1.47179 9.83125 1.62075 9.93333 3.44367V7.39888C9.93333 8.26554 9.77604 8.42492 9.42708 8.42492C8.49792 8.42492 6.24271 5.08013 4.90625 1.252C4.63646 0.509294 4.37292 0.209294 3.67188 0.209294H0.9375C0.157292 0.209294 0 0.568669 0 0.970752C0 1.68117 0.929166 5.21346 4.32083 9.88013C6.58125 13.0655 9.76458 14.7916 12.6604 14.7916C14.401 14.7916 14.6135 14.4083 14.6135 13.7489C14.6135 10.7051 14.4563 10.4176 15.3281 10.4176C15.7323 10.4176 16.4281 10.6176 18.0531 12.1541C19.9104 13.976 20.2156 14.7916 21.2552 14.7916H23.9885C24.7677 14.7916 25.1625 14.4083 24.9354 13.652C24.4156 12.0614 20.9031 8.7895 20.7448 8.57075Z" fill="#4265BD"/>
</svg>
